<?xml version="1.0" encoding="UTF-8"?>
<svg width="50px" height="50px" viewBox="0 0 50 50" version="1.1" xmlns="http://www.w3.org/2000/svg" xmlns:xlink="http://www.w3.org/1999/xlink">
    <title>04</title>
    <g id="RetroPokemonTCG" stroke="none" stroke-width="1" fill="none" fill-rule="evenodd">
        <g id="weather" transform="translate(-392.000000, -144.000000)">
            <g id="04" transform="translate(392.000000, 144.000000)">
                <rect id="Rectangle" x="0" y="0" width="50" height="50"></rect>
                <g id="sun" transform="translate(1.000000, 0.000000)">
                    <path d="M20,12 C22.093153,12 24.1360892,12.9055941 25.6309022,14.4004071 C27.0771151,15.84662 28,17.8265931 28,20 C28,21.5913724 27.5060026,23.077402 26.6736063,24.3278844 C26.4953301,24.5957032 26.3010961,24.8533716 26.0914531,25.0988505 C25.8292914,25.1257549 25.5663076,25.1587544 25.3026742,25.1979262 C22.9903776,25.541497 20.8639576,26.3248489 19.0194824,27.4642837 C18.8049091,27.5968375 18.5929373,27.7349604 18.3835973,27.8785468 C18.0903065,27.8356456 17.7948011,27.7785089 17.4978808,27.7066443 C15.5658945,27.2390393 13.9723137,26.2442931 12.8510684,24.9437684 C11.6687572,23.5724138 11,21.8576009 11,20 C11,17.7297494 11.996576,15.6681806 13.7172786,14.1932927 C15.275596,12.857592 17.4478342,12 20,12 Z" id="O" stroke="#777677" stroke-width="4"></path>
                    <path d="M9.99435687,28.0607741 L10.1235332,28.1799847 C10.9545584,29.0110099 10.9524292,30.3604973 10.1251033,31.1878232 L8.61725884,32.6956676 C7.82860863,33.4843178 6.57904869,33.5283448 5.73859664,32.8133082 L5.60942032,32.6940976 C4.77839509,31.8630723 4.78052434,30.513585 5.60785025,29.686259 L7.11569468,28.1784146 C7.90434488,27.3897644 9.15390482,27.3457374 9.99435687,28.0607741 Z M36.1777651,17.0237857 C37.3007415,17.0237857 38.2203384,17.8879704 38.2981805,18.99881 L38.3035179,19.1517589 C38.3035179,20.3270061 37.3477806,21.2797322 36.1777651,21.2797322 L34.045351,21.2797322 C32.9223746,21.2797322 32.0027777,20.4155475 31.9249356,19.3047079 L31.9195982,19.1517589 C31.9195982,17.9765118 32.8753355,17.0237857 34.045351,17.0237857 L36.1777651,17.0237857 Z M4.25816684,17.0237857 C5.38114331,17.0237857 6.30074014,17.8879704 6.37858225,18.99881 L6.38391965,19.1517589 C6.38391965,20.3270061 5.42818237,21.2797322 4.25816684,21.2797322 L2.12575281,21.2797322 C1.00277633,21.2797322 0.0831795058,20.4155475 0.00533739307,19.3047079 L4.97276082e-16,19.1517589 C2.81386682e-16,17.9765118 0.955737273,17.0237857 2.12575281,17.0237857 L4.25816684,17.0237857 Z M32.5649212,5.49020969 L32.6940976,5.60942032 C33.5251228,6.44044555 33.5229935,7.78993292 32.6956676,8.61725884 L31.1878232,10.1251033 C30.399173,10.9137535 29.1496131,10.9577804 28.309161,10.2427438 L28.1799847,10.1235332 C27.3489594,9.29250796 27.3510887,7.9430206 28.1784146,7.11569468 L29.686259,5.60785025 C30.4749092,4.81920005 31.7244692,4.77517308 32.5649212,5.49020969 Z M8.61725884,5.60785025 L10.1251033,7.11569468 C10.9137535,7.90434488 10.9577804,9.15390482 10.2427438,9.99435687 L10.1235332,10.1235332 C9.29250796,10.9545584 7.9430206,10.9524292 7.11569468,10.1251033 L5.60785025,8.61725884 C4.81920005,7.82860863 4.77517308,6.57904869 5.49020969,5.73859664 L5.60942032,5.60942032 C6.44044555,4.77839509 7.78993292,4.78052434 8.61725884,5.60785025 Z M19.1517589,0 C20.3270061,0 21.2797322,0.955737273 21.2797322,2.12575281 L21.2797322,4.25816684 C21.2797322,5.38114331 20.4155475,6.30074014 19.3047079,6.37858225 L19.1517589,6.38391965 C17.9765118,6.38391965 17.0237857,5.42818237 17.0237857,4.25816684 L17.0237857,2.12575281 C17.0237857,1.00277633 17.8879704,0.0831795058 18.99881,0.00533739307 L19.1517589,0 Z" id="light" fill="#777677"></path>
                </g>
                <path d="M27,25 C29.2645883,25 31.4109187,25.7702747 33.1923705,27.0938077 C35.0221389,28.4532376 36.4684705,30.3948671 37.2788615,32.7015312 L37.2788615,32.7015312 L37.7966976,34.175479 L39.3521663,34.0298996 C39.5653406,34.0099482 39.7815019,34 40,34 C41.9329966,34 43.6829966,34.7835017 44.9497475,36.0502525 C46.2164983,37.3170034 47,39.0670034 47,41 C47,42.7915133 46.3271509,44.4259526 45.220001,45.6639914 C44.1226632,46.8910581 42.5993069,47.7299378 40.881631,47.9452244 L40.881631,47.9452244 L13,48 C11.6192881,48 10.3692881,47.4403559 9.46446609,46.5355339 C8.55964406,45.6307119 8,44.3807119 8,43 C8,41.6192881 8.55964406,40.3692881 9.46446609,39.4644661 C10.3692881,38.5596441 11.6192881,38 13,38 C13.7270985,38 14.4179481,38.1552002 15.0410997,38.4338184 C14.9580251,37.6873906 14.9412588,36.9198439 14.9952511,36.1377421 C15.2164592,32.9334518 16.5805551,30.1343722 18.7223511,28.1455616 C20.8528631,26.167229 23.7435004,25 27,25 Z" id="cloud" stroke="#777677" stroke-width="4"></path>
            </g>
        </g>
    </g>
</svg>