<?xml version="1.0" encoding="UTF-8"?>
<svg width="14px" height="21px" viewBox="0 0 14 21" version="1.1" xmlns="http://www.w3.org/2000/svg" xmlns:xlink="http://www.w3.org/1999/xlink">
    <title>Shape</title>
    <g id="RetroPokemonTCG" stroke="none" stroke-width="1" fill="none" fill-rule="evenodd">
        <g id="Navs-Copy" transform="translate(-845.000000, -381.000000)" fill="#7FB9E4" fill-rule="nonzero">
            <path d="M853.162159,381.906049 C852.846364,380.72562 851.195795,380.670659 850.837841,381.906049 C848.97767,388.37667 845,390.135008 845,394.695532 C845,398.733108 848.130909,402 852,402 C855.869091,402 859,398.733108 859,394.695532 C859,390.11204 855.03108,388.406201 853.162159,381.906049 Z M852,399.375002 C849.544034,399.375002 847.545455,397.313968 847.545455,394.781255 C847.545455,394.418677 847.830227,394.125005 848.181818,394.125005 C848.533409,394.125005 848.818182,394.418677 848.818182,394.781255 C848.818182,396.590453 850.245625,398.062503 852,398.062503 C852.351591,398.062503 852.636364,398.356174 852.636364,398.718752 C852.636364,399.08133 852.351591,399.375002 852,399.375002 Z" id="Shape" transform="translate(852.000000, 391.500000) scale(-1, 1) translate(-852.000000, -391.500000) "></path>
        </g>
    </g>
</svg>