<?xml version="1.0" encoding="UTF-8"?>
<svg width="50px" height="50px" viewBox="0 0 50 50" version="1.1" xmlns="http://www.w3.org/2000/svg" xmlns:xlink="http://www.w3.org/1999/xlink">
    <title>02</title>
    <g id="RetroPokemonTCG" stroke="none" stroke-width="1" fill="none" fill-rule="evenodd">
        <g id="weather" transform="translate(-170.000000, -144.000000)">
            <g id="02" transform="translate(170.000000, 144.000000)">
                <rect id="Rectangle" x="0" y="0" width="50" height="50"></rect>
                <path d="M24,3 C26.727703,3 29.2579953,3.87302751 31.3439351,5.38688111 C33.4926171,6.94626942 35.169367,9.18177407 36.1211429,11.8378878 L36.1211429,11.8378878 L36.6849998,13.4114388 L38.3336515,13.1358576 C38.8702878,13.0461559 39.4272533,13 40,13 C42.1439821,13 44.1516781,13.9903981 45.6132176,15.5980916 C47.0813965,17.2130884 48,19.4519537 48,22 C48,24.1195959 47.038593,26.1072223 45.5729076,27.5729076 C44.1072223,29.038593 42.1195959,30 40,30 L40,30 L9,30 C7.34314575,30 5.84314575,29.3284271 4.75735931,28.2426407 C3.67157288,27.1568542 3,25.6568542 3,24 C3,22.3431458 3.67157288,20.8431458 4.75735931,19.7573593 C5.84314575,18.6715729 7.34314575,18 9,18 C9.71081717,18 10.3927646,18.1236062 11.025412,18.3498232 C10.9630152,17.6207605 10.9522793,16.8749119 10.996593,16.1166893 C11.2156745,12.3681323 12.7358816,9.07669891 15.0884032,6.72417734 C17.4121966,4.40038395 20.5471136,3 24,3 L24,3 Z" id="cloud" stroke="#777677" stroke-width="4"></path>
                <g id="rain" transform="translate(4.000000, 28.000000)" fill="#777677">
                    <rect id="1" transform="translate(4.000000, 10.000000) rotate(20.000000) translate(-4.000000, -10.000000) " x="2" y="5" width="4" height="10" rx="2"></rect>
                    <rect id="2" transform="translate(12.000000, 11.000000) rotate(20.000000) translate(-12.000000, -11.000000) " x="10" y="1" width="4" height="20" rx="2"></rect>
                    <rect id="3" transform="translate(20.000000, 13.000000) rotate(20.000000) translate(-20.000000, -13.000000) " x="18" y="5" width="4" height="16" rx="2"></rect>
                    <rect id="4" transform="translate(30.000000, 8.000000) rotate(20.000000) translate(-30.000000, -8.000000) " x="28" y="2" width="4" height="12" rx="2"></rect>
                    <rect id="5" transform="translate(36.000000, 15.000000) rotate(20.000000) translate(-36.000000, -15.000000) " x="34" y="11" width="4" height="8" rx="2"></rect>
                </g>
            </g>
        </g>
    </g>
</svg>