<?xml version="1.0" encoding="UTF-8"?>
<svg width="255px" height="255px" viewBox="0 0 255 255" version="1.1" xmlns="http://www.w3.org/2000/svg" xmlns:xlink="http://www.w3.org/1999/xlink">
    <title>6</title>
    <g id="RetroPokemonTCG" stroke="none" stroke-width="1" fill="none" fill-rule="evenodd">
        <g id="Navs-Copy-2" transform="translate(-525.000000, -268.000000)">
            <g id="02" transform="translate(525.000000, 268.000000)">
                <rect id="Rectangle" x="0" y="0" width="255" height="255"></rect>
                <path d="M122.4,15.3 C136.311302,15.3 149.215808,19.7524513 159.854108,27.4731222 C170.812394,35.4260202 179.363818,46.8271179 184.217863,60.3733239 L184.217863,60.3733239 L187.093309,68.3978426 L195.500913,66.9931082 C198.241631,66.5351917 201.080617,66.3 204,66.3 C214.934309,66.3 225.173558,71.3510303 232.62741,79.550267 C240.115122,87.7867508 244.8,99.2049639 244.8,112.2 C244.8,123.009939 239.896824,133.146833 232.421829,140.621829 C224.946833,148.096824 214.809939,153 204.000125,153 L204.000125,153 L122.514,152.999 L46.011545,152.999 C37.6056877,152.999375 30.0003353,149.65362 24.4601105,144.219339 C18.9232207,138.788328 15.4500516,131.273936 15.3047725,122.947781 L15.3047725,122.947781 L15.3000236,122.361595 C15.3103842,113.926865 18.7334122,106.291653 24.2625325,100.762532 C29.8000433,95.2250217 37.4500433,91.8 45.9,91.8 C49.5251676,91.8 53.0030993,92.4303918 56.2295045,93.5842485 C55.9113144,89.8660028 55.8565922,86.0621483 56.0826203,82.1951847 C57.2000744,63.0774021 64.953157,46.2910774 76.9509993,34.293235 C88.8023317,22.4419027 104.790351,15.3 122.4,15.3 Z" id="cloud" stroke="#777677" stroke-width="20.4"></path>
                <g id="rain" transform="translate(22.400000, 146.800000)" fill="#777677">
                    <rect id="1" transform="translate(18.400000, 47.000000) rotate(20.000000) translate(-18.400000, -47.000000) " x="8.2" y="21.5" width="20.4" height="51" rx="10.2"></rect>
                    <rect id="2" transform="translate(59.200000, 52.100000) rotate(20.000000) translate(-59.200000, -52.100000) " x="49" y="1.1" width="20.4" height="102" rx="10.2"></rect>
                    <rect id="3" transform="translate(100.000000, 62.300000) rotate(20.000000) translate(-100.000000, -62.300000) " x="89.8" y="21.5" width="20.4" height="81.6" rx="10.2"></rect>
                    <rect id="4" transform="translate(151.000000, 36.800000) rotate(20.000000) translate(-151.000000, -36.800000) " x="140.8" y="6.2" width="20.4" height="61.2" rx="10.2"></rect>
                    <rect id="5" transform="translate(181.600000, 72.500000) rotate(20.000000) translate(-181.600000, -72.500000) " x="171.4" y="52.1" width="20.4" height="40.8" rx="10.2"></rect>
                </g>
            </g>
        </g>
    </g>
</svg>