<?xml version="1.0" encoding="UTF-8"?>
<svg width="255px" height="255px" viewBox="0 0 255 255" version="1.1" xmlns="http://www.w3.org/2000/svg" xmlns:xlink="http://www.w3.org/1999/xlink">
    <title>01</title>
    <g id="RetroPokemonTCG" stroke="none" stroke-width="1" fill="none" fill-rule="evenodd">
        <g id="Navs" transform="translate(-525.000000, -291.000000)">
            <g id="01" transform="translate(525.000000, 291.000000)">
                <rect id="Rectangle" x="0" y="0" width="255" height="255"></rect>
                <g id="sun" fill="#777677">
                    <path d="M127.5,173.4 L127.5,173.4 C152.84987,173.4 173.4,152.84987 173.4,127.5 C173.4,102.15013 152.84987,81.6 127.5,81.6 C102.15013,81.6 81.6,102.15013 81.6,127.5 C81.6,152.84987 102.15013,173.4 127.5,173.4 L127.5,173.4 Z M127.5,193.8 L127.5,193.8 C90.8835211,193.8 61.2,164.116479 61.2,127.5 C61.2,90.8835211 90.8835211,61.2 127.5,61.2 C164.116479,61.2 193.8,90.8835211 193.8,127.5 C193.8,164.116479 164.116479,193.8 127.5,193.8 L127.5,193.8 Z" id="O" fill-rule="nonzero"></path>
                    <path d="M127.5,214.2 C133.133304,214.2 137.7,218.761517 137.7,224.390317 L137.7,244.809683 C137.7,250.34384 133.285457,254.847625 127.78082,254.996214 L127.5,255 C121.866696,255 117.3,250.438483 117.3,244.809683 L117.3,224.390317 C117.3,218.85616 121.714543,214.352375 127.21918,214.203786 L127.5,214.2 Z M65.9741008,188.592786 L66.1938421,188.806158 C70.1771898,192.789506 70.1808513,199.244127 66.2006891,203.224289 L51.7620168,217.662962 C47.8548062,221.570172 41.5619942,221.639102 37.5636267,217.869487 L37.3438854,217.656115 C33.3605376,213.672767 33.3568761,207.218146 37.3370384,203.237983 L51.7757107,188.799311 C55.6829213,184.8921 61.9757332,184.823171 65.9741008,188.592786 Z M203.224289,188.799311 L217.662962,203.237983 C221.570172,207.145194 221.639102,213.438006 217.869487,217.436373 L217.656115,217.656115 C213.672767,221.639462 207.218146,221.643124 203.237983,217.662962 L188.799311,203.224289 C184.8921,199.317079 184.823171,193.024267 188.592786,189.025899 L188.806158,188.806158 C192.789506,184.82281 199.244127,184.819149 203.224289,188.799311 Z M244.809683,117.3 C250.34384,117.3 254.847625,121.714543 254.996214,127.21918 L255,127.5 C255,133.133304 250.438483,137.7 244.809683,137.7 L224.390317,137.7 C218.85616,137.7 214.352375,133.285457 214.203786,127.78082 L214.2,127.5 C214.2,121.866696 218.761517,117.3 224.390317,117.3 L244.809683,117.3 Z M30.6096831,117.3 C36.1438404,117.3 40.6476253,121.714543 40.7962142,127.21918 L40.8,127.5 C40.8,133.133304 36.2384826,137.7 30.6096831,137.7 L10.1903169,137.7 C4.65615956,137.7 0.152374675,133.285457 0.00378577818,127.78082 L1.67900408e-15,127.5 C6.44182837e-16,121.866696 4.56151744,117.3 10.1903169,117.3 L30.6096831,117.3 Z M217.436373,37.1305132 L217.656115,37.3438854 C221.639462,41.3272332 221.643124,47.7818545 217.662962,51.7620168 L203.224289,66.2006891 C199.317079,70.1078996 193.024267,70.176829 189.025899,66.4072142 L188.806158,66.1938421 C184.82281,62.2104943 184.819149,55.755873 188.799311,51.7757107 L203.237983,37.3370384 C207.145194,33.4298279 213.438006,33.3608985 217.436373,37.1305132 Z M51.7620168,37.3370384 L66.2006891,51.7757107 C70.1078996,55.6829213 70.176829,61.9757332 66.4072142,65.9741008 L66.1938421,66.1938421 C62.2104943,70.1771898 55.755873,70.1808513 51.7757107,66.2006891 L37.3370384,51.7620168 C33.4298279,47.8548062 33.3608985,41.5619942 37.1305132,37.5636267 L37.3438854,37.3438854 C41.3272332,33.3605376 47.7818545,33.3568761 51.7620168,37.3370384 Z M127.5,0 C133.133304,0 137.7,4.56151744 137.7,10.1903169 L137.7,30.6096831 C137.7,36.1438404 133.285457,40.6476253 127.78082,40.7962142 L127.5,40.8 C121.866696,40.8 117.3,36.2384826 117.3,30.6096831 L117.3,10.1903169 C117.3,4.65615956 121.714543,0.152374675 127.21918,0.00378577818 L127.5,0 Z" id="light"></path>
                </g>
            </g>
        </g>
    </g>
</svg>