<?xml version="1.0" encoding="UTF-8"?>
<svg width="50px" height="50px" viewBox="0 0 50 50" version="1.1" xmlns="http://www.w3.org/2000/svg" xmlns:xlink="http://www.w3.org/1999/xlink">
    <title>03</title>
    <g id="RetroPokemonTCG" stroke="none" stroke-width="1" fill="none" fill-rule="evenodd">
        <g id="weather" transform="translate(-281.000000, -144.000000)">
            <g id="03" transform="translate(281.000000, 144.000000)">
                <rect id="Rectangle" x="0" y="0" width="50" height="50"></rect>
                <path d="M24.3655172,3 C27.0619551,3 29.5623929,3.85298799 31.620524,5.30755922 C33.7472416,6.81060352 35.4028835,8.95400819 36.3194784,11.4624381 L36.3194784,11.4624381 L36.8759507,12.9853263 L38.4810082,12.7558917 C38.8438667,12.704023 39.2154214,12.6774194 39.5931034,12.6774194 C41.7965711,12.6774194 43.7898696,13.5882021 45.2333292,15.0559556 C46.6887696,16.5358914 47.5862069,18.5811636 47.5862069,20.8387097 C47.5862069,23.0259969 46.7438302,25.0139836 45.367612,26.4816309 C44.0057552,27.9339628 42.1204839,28.8767821 40.0176213,28.9887364 L40.0176213,28.9887364 L27.1068321,28.9972442 L28.9164227,22.7650068 L18.5489178,22.7650068 L16.9526034,28.999 L9.67352203,28.9990001 C8.13408942,28.999368 6.74571122,28.3889115 5.72879993,27.3952097 C4.70570447,26.3954649 4.05860818,25.0101583 4.00380409,23.4717754 C4.00978977,21.7897155 4.62899527,20.2954662 5.65275567,19.2208991 C6.66283612,18.1606909 8.06394595,17.516129 9.6137931,17.516129 C10.3699868,17.516129 11.090772,17.6695741 11.7480005,17.9493441 C11.6339378,17.1779919 11.5869114,16.3860158 11.6127644,15.5802674 C11.7251484,12.0776454 13.1952016,8.92302483 15.5078463,6.64731456 C17.8005778,4.39119955 20.9228395,3 24.3655172,3 Z" id="cloud" stroke="#777677" stroke-width="4"></path>
                <g id="rain" transform="translate(4.000000, 27.000000)" fill="#777677">
                    <rect id="1" x="2" y="6" width="4" height="10" rx="2"></rect>
                    <rect id="2" x="6" y="14" width="4" height="7" rx="2"></rect>
                    <rect id="3" x="27" y="-7.10542736e-15" width="4" height="22" rx="2"></rect>
                    <rect id="4" x="34" y="7" width="4" height="11" rx="2"></rect>
                </g>
                <path d="M28.2829368,23.2650068 L25.4412915,32.5174354 L29.0506894,32.5181975 L16.8654861,50.8525592 L18.2648073,37.2122603 L15.3672771,37.2127023 L18.9368593,23.2650068 L28.2829368,23.2650068 Z" id="thunder" stroke="#777677" stroke-width="3" stroke-linecap="round" stroke-linejoin="round"></path>
            </g>
        </g>
    </g>
</svg>