<?xml version="1.0" encoding="UTF-8"?>
<svg width="20px" height="17px" viewBox="0 0 20 17" version="1.1" xmlns="http://www.w3.org/2000/svg" xmlns:xlink="http://www.w3.org/1999/xlink">
    <title>Shape</title>
    <g id="RetroPokemonTCG" stroke="none" stroke-width="1" fill="none" fill-rule="evenodd">
        <g id="Navs-Copy" transform="translate(-926.000000, -383.000000)" fill="#7FB9E4" fill-rule="nonzero">
            <path d="M932.120829,391.399526 L926.624973,391.399526 C926.281238,391.399526 926,391.669557 926,391.999594 L926,393.199731 C926,393.529768 926.281238,393.799799 926.624973,393.799799 L932.17942,393.799799 C932.800487,393.799799 933.382493,394.208595 933.484051,394.797412 C933.612952,395.547497 933.011416,396.200071 932.24973,396.200071 C931.698972,396.200071 931.230243,395.855032 931.062281,395.378728 C930.980253,395.142451 930.726358,394.999935 930.468557,394.999935 L929.187362,394.999935 C928.804566,394.999935 928.495986,395.329973 928.566295,395.690013 C928.902218,397.343951 930.42559,398.600344 932.245824,398.600344 C934.476196,398.600344 936.257369,396.721381 935.964413,394.527381 C935.726142,392.712175 934.023091,391.399526 932.120829,391.399526 Z M926.624973,390.19939 L939.749406,390.19939 C942.081336,390.19939 943.9211,388.144156 943.41331,385.822642 C943.116448,384.464988 941.971966,383.366113 940.557964,383.081081 C938.393995,382.646031 936.452673,384.014937 936.069877,385.912653 C935.995662,386.272694 936.308148,386.598981 936.687038,386.598981 L937.968233,386.598981 C938.22994,386.598981 938.479929,386.456464 938.561957,386.220188 C938.729918,385.743883 939.198648,385.398844 939.749406,385.398844 C940.507185,385.398844 941.112628,386.051418 940.983727,386.801504 C940.882169,387.39032 940.304069,387.799117 939.679096,387.799117 L926.624973,387.799117 C926.281238,387.799117 926,388.069148 926,388.399185 L926,389.599321 C926,389.929359 926.281238,390.19939 926.624973,390.19939 Z M941.624325,391.399526 L935.51912,391.399526 C936.272993,392.022097 936.815939,392.854691 937.07374,393.799799 L941.624325,393.799799 C942.659436,393.799799 943.499244,394.60614 943.499244,395.600003 C943.499244,396.593866 942.659436,397.400208 941.624325,397.400208 C940.925136,397.400208 940.3236,397.028916 939.999395,396.485104 C939.886118,396.297582 939.659566,396.200071 939.433013,396.200071 L938.112758,396.200071 C937.686995,396.200071 937.370602,396.605117 937.515127,396.991411 C938.21041,398.889127 940.268914,400.171773 942.569596,399.702969 C944.178902,399.376682 945.503063,398.142792 945.878047,396.601367 C946.545987,393.856055 944.378112,391.399526 941.624325,391.399526 Z" id="Shape"></path>
        </g>
    </g>
</svg>